<?xml version="1.0" encoding="iso-8859-1"?>
<!-- Generator: Adobe Illustrator 19.0.0, SVG Export Plug-In . SVG Version: 6.00 Build 0)  -->
<svg version="1.1" id="Layer_1" xmlns="http://www.w3.org/2000/svg" xmlns:xlink="http://www.w3.org/1999/xlink" x="0px" y="0px"
	 viewBox="0 0 512 512" style="enable-background:new 0 0 512 512;" xml:space="preserve">
<g>
	<g>
		<path d="M475.241,61.801H39.13C18.204,61.801,0,78.477,0,99.403v255.972c0,20.917,18.195,38.278,39.102,38.278h265.491
			c5.241,0,9.482-4.241,9.482-9.482s-4.241-9.482-9.482-9.482H39.102c-10.454,0-20.139-8.852-20.139-19.315V99.403
			c0-10.463,9.704-18.639,20.167-18.639h436.111c10.463,0,17.796,8.176,17.796,18.639v170.648c0,5.241,4.241,9.482,9.481,9.482
			c5.241,0,9.482-4.241,9.482-9.482V99.403C512,78.477,496.167,61.801,475.241,61.801z"/>
	</g>
</g>
<g>
	<g>
		<path d="M418.37,279.532c-47.056,0-85.333,38.278-85.333,85.333c0,47.055,38.278,85.333,85.333,85.333
			c47.056,0,85.333-38.278,85.333-85.333C503.704,317.81,465.426,279.532,418.37,279.532z M418.37,431.236
			c-36.593,0-66.37-29.778-66.37-66.37s29.778-66.37,66.37-66.37s66.37,29.778,66.37,66.37S454.963,431.236,418.37,431.236z"/>
	</g>
</g>
<g>
	<g>
		<path d="M417.25,309.625c-18.296,0-33.185,15.417-33.185,34.37c0,5.241,4.241,9.482,9.482,9.482c5.241,0,9.481-4.241,9.481-9.482
			c0-8.5,6.38-15.407,14.222-15.407c5.315,0,14.222,2,14.222,15.407c0,2.713-1.435,4.333-6.75,8.889
			c-6.75,5.787-16.954,14.528-16.954,32.593c0,5.241,4.241,9.481,9.481,9.481c5.241,0,9.482-4.241,9.482-9.481
			c0-9.343,4.333-13.056,10.333-18.195c5.954-5.111,13.37-11.472,13.37-23.287C450.435,323.44,437.102,309.625,417.25,309.625z"/>
	</g>
</g>
<g>
	<g>
		<path d="M357.435,219.616L215.213,120.06c-2.898-2.037-7.278-2.287-10.408-0.639c-3.139,1.63-5.694,4.87-5.694,8.407V326.94
			c0,3.537,2.556,6.778,5.694,8.407c1.38,0.722,3.176,1.074,4.676,1.074c1.907,0,3.963-0.574,5.583-1.713l142.296-99.556
			c2.537-1.778,4.12-4.676,4.12-7.768C361.482,224.292,359.972,221.393,357.435,219.616z M218.074,308.727V146.042l116.204,81.343
			L218.074,308.727z"/>
	</g>
</g>
<g>
</g>
<g>
</g>
<g>
</g>
<g>
</g>
<g>
</g>
<g>
</g>
<g>
</g>
<g>
</g>
<g>
</g>
<g>
</g>
<g>
</g>
<g>
</g>
<g>
</g>
<g>
</g>
<g>
</g>
</svg>
